<?xml version="1.0" encoding="UTF-8" standalone="no"?>
<!-- Created with Inkscape (http://www.inkscape.org/) -->
<svg xmlns:dc="http://purl.org/dc/elements/1.1/" xmlns:cc="http://web.resource.org/cc/" xmlns:rdf="http://www.w3.org/1999/02/22-rdf-syntax-ns#" xmlns:svg="http://www.w3.org/2000/svg" xmlns="http://www.w3.org/2000/svg" xmlns:sodipodi="http://sodipodi.sourceforge.net/DTD/sodipodi-0.dtd" xmlns:inkscape="http://www.inkscape.org/namespaces/inkscape" width="600" height="337.92844" id="svg2599" sodipodi:version="0.32" inkscape:version="0.45.1" version="1.0" sodipodi:docbase="C:\Documents and Settings\Utilisateur\Mes documents\Mes images\Dessins SVG" sodipodi:docname="Logo TGV.svg" inkscape:output_extension="org.inkscape.output.svg.inkscape">
  <defs id="defs2601"/>
  <sodipodi:namedview id="base" pagecolor="#ffffff" bordercolor="#666666" borderopacity="1.0" inkscape:pageopacity="0.0" inkscape:pageshadow="2" inkscape:zoom="0.7" inkscape:cx="269.71346" inkscape:cy="200.81702" inkscape:document-units="px" inkscape:current-layer="layer1" inkscape:window-width="1024" inkscape:window-height="712" inkscape:window-x="-4" inkscape:window-y="-4"/>
  <metadata id="metadata2604">
    <rdf:RDF>
      <cc:Work rdf:about="">
        <dc:format>image/svg+xml</dc:format>
        <dc:type rdf:resource="http://purl.org/dc/dcmitype/StillImage"/>
      </cc:Work>
    </rdf:RDF>
  </metadata>
  <g inkscape:label="Calque 1" inkscape:groupmode="layer" id="layer1" transform="translate(-78.617145,-176.17369)">
    <g id="g6622">
      <rect ry="0" rx="0" y="177.67369" x="80.117142" height="334.92767" width="596.71106" id="rect13067" style="fill:#ffffff;fill-opacity:1;fill-rule:nonzero;stroke:#FFFFFF;stroke-width:3;stroke-linecap:butt;stroke-linejoin:miter;stroke-miterlimit:4;stroke-dasharray:none;stroke-dashoffset:0;stroke-opacity:0.8"/>
      <path style="fill:none;fill-rule:evenodd;stroke:#000000;stroke-width:3;stroke-linecap:butt;stroke-linejoin:miter;stroke-miterlimit:4;stroke-dasharray:none;stroke-opacity:0.8" d="M 507.84339,290.49623 C 498.86762,288.41454 358.67048,290.49623 358.67048,290.49623 C 330.01662,262.06116 316.17939,235.88962 294.21433,224.24843 C 262.59148,207.48889 230.59135,206.11497 222.96121,207.80345 C 276.02932,204.42284 265.73373,205.4636 335.96441,207.80345 C 406.19385,210.14447 452.92584,240.56798 452.92584,240.56798 C 452.92584,240.56798 505.99515,289.45531 508.1076,290.75555 C 615.30186,344.32257 658.33735,406.34178 661.10972,413.10318 C 663.88208,419.8644 632.72744,422.074 632.72744,422.074 C 570.68111,433.10812 530.94885,418.11088 520.71472,409.66466 C 466.70284,378.04923 425.46889,349.57234 394.31056,330.54312 C 310.47491,279.34416 303.74064,294.8305 301.16366,290.51465 C 301.16366,290.51465 301.16366,290.51465 288.46684,242.70741 C 275.77248,194.90018 210.80387,209.6099 210.80387,209.6099 C 210.80387,209.6099 112.97617,225.7919 80.118286,229.46867 L 80.387395,301.15671 L 301.64048,291.27536" id="path12974" sodipodi:nodetypes="ccscscssccscsc"/>
      <path style="fill:none;fill-rule:evenodd;stroke:#000000;stroke-width:3;stroke-linecap:butt;stroke-linejoin:miter;stroke-miterlimit:4;stroke-dasharray:none;stroke-opacity:0.8" d="M 358.6373,290.46305 C 356.52485,290.46305 302.1357,291.24333 302.1357,291.24333" id="path12976"/>
      <path style="fill:none;fill-rule:evenodd;stroke:#000000;stroke-width:3;stroke-linecap:butt;stroke-linejoin:miter;stroke-miterlimit:4;stroke-dasharray:none;stroke-opacity:0.8" d="M 80.387395,301.15671 L 80.387395,357.32539 L 299.52802,378.12787 C 299.52802,378.12787 416.75488,397.89074 510.22006,422.33449 C 510.22006,422.33449 577.28267,426.49422 590.48334,425.97574 C 603.68401,425.45462 603.68401,425.45462 603.68401,425.45462" id="path12978"/>
      <path style="fill:none;fill-rule:evenodd;stroke:#000000;stroke-width:3;stroke-linecap:butt;stroke-linejoin:miter;stroke-miterlimit:4;stroke-dasharray:none;stroke-opacity:0.8" d="M 439.46096,405.69174 L 444.21304,362.00624 C 444.21304,362.00624 518.66864,301.67668 604.74085,352.64453" id="path12980" sodipodi:nodetypes="ccs"/>
      <path style="fill:none;fill-rule:evenodd;stroke:#000000;stroke-width:3;stroke-linecap:butt;stroke-linejoin:miter;stroke-miterlimit:4;stroke-dasharray:none;stroke-opacity:0.8" d="M 80.387395,356.80558 L 80.387395,398.41055 L 329.09863,450.41817 C 329.09863,450.41817 595.76384,495.14459 652.26545,458.74012 L 661.77085,414.01254" id="path12982"/>
      <path style="fill:#000000;fill-opacity:0.8;fill-rule:nonzero;stroke:#000000;stroke-width:3;stroke-linecap:butt;stroke-linejoin:miter;stroke-miterlimit:4;stroke-dasharray:none;stroke-dashoffset:0;stroke-opacity:0.8" d="M 332.74474,245.95297 L 402.78862,245.95297 L 437.84375,281.30291 L 363.31936,281.30291 L 332.74474,245.95297 z " id="path12984" sodipodi:nodetypes="ccccc"/>
      <path sodipodi:nodetypes="ccccc" id="path12986" d="M 426.8391,246.6878 L 457.43584,249.26224 L 490.11798,279.83194 L 459.99313,279.46461 L 426.8391,246.6878 z " style="fill:#000000;fill-opacity:0.8;fill-rule:nonzero;stroke:#000000;stroke-width:3;stroke-linecap:butt;stroke-linejoin:miter;stroke-miterlimit:4;stroke-dasharray:none;stroke-dashoffset:0;stroke-opacity:0.8"/>
      <path style="fill:#000000;fill-opacity:0.8;fill-rule:nonzero;stroke:#000000;stroke-width:3;stroke-linecap:butt;stroke-linejoin:miter;stroke-miterlimit:4;stroke-dasharray:none;stroke-dashoffset:0;stroke-opacity:0.8" d="M 301.5397,247.79128 L 308.00854,247.6622 L 339.11035,283.2766 L 313.20917,283.60958 L 301.5397,247.79128 z " id="path12988" sodipodi:nodetypes="ccccc"/>
      <rect style="fill:#000000;fill-opacity:0.8;fill-rule:nonzero;stroke:#000000;stroke-width:3.68649507;stroke-linecap:butt;stroke-linejoin:miter;stroke-miterlimit:4;stroke-dasharray:none;stroke-dashoffset:0;stroke-opacity:0.8" id="rect12990" width="87.183273" height="36.650414" x="53.907555" y="551.38544" transform="matrix(1,0,0.749292,0.6622397,0,0)" ry="55.494476" rx="30.757711"/>
      <path style="fill:#000000;fill-opacity:0.8;fill-rule:nonzero;stroke:#000000;stroke-width:3;stroke-linecap:butt;stroke-linejoin:miter;stroke-miterlimit:4;stroke-dasharray:none;stroke-dashoffset:0;stroke-opacity:0.8" d="M 595.76262,359.36892 L 592.90301,359.73641 C 586.96627,359.73641 584.84645,362.21761 588.14968,365.2996 L 601.73132,377.97307 C 605.03454,381.05504 612.47174,383.53625 618.40848,383.53625 L 622.38884,382.8001 C 628.32557,382.8001 630.44538,380.32023 627.14216,377.23693 L 612.44102,364.9321 C 609.13778,361.85012 601.69936,359.36892 595.76262,359.36892 z " id="path12992" sodipodi:nodetypes="ccccccccc"/>
      <path style="fill:#000000;fill-opacity:0.8;fill-rule:nonzero;stroke:#000000;stroke-width:3;stroke-linecap:butt;stroke-linejoin:miter;stroke-miterlimit:4;stroke-dasharray:none;stroke-dashoffset:0;stroke-opacity:0.8" d="M 80.79662,310.35501 L 243.96652,310.35501 L 349.63574,362.57515 L 243.96652,351.5422 L 80.79662,342.34888 L 80.79662,310.35501 z " id="path12994" sodipodi:nodetypes="cccccc"/>
      <path sodipodi:nodetypes="cssccc" id="path14038" d="M 80.142863,412.74796 C 80.142863,412.74796 276.10673,461.81612 425.00192,487.60175 C 479.41933,497.02486 655.55884,491.71353 677.11715,479.94941 C 677.11715,479.94941 676.3024,512.60213 676.3024,512.60213 L 80.671276,512.60213 L 80.142863,412.74796 z " style="fill:#FFFFFF;fill-rule:evenodd;stroke:#FFFFFF;stroke-width:3;stroke-linecap:butt;stroke-linejoin:miter;stroke-miterlimit:4;stroke-dasharray:none;stroke-opacity:0.8"/>
      <path sodipodi:nodetypes="ccccccc" id="path19979" d="M 80.79662,366.20132 L 297.51415,390.69864 L 401.85852,410.65615 L 508.3597,462.05454 L 342.13325,442.27938 L 80.518779,388.50381 L 80.79662,366.20132 z " style="fill:#000000;fill-opacity:0.8;fill-rule:nonzero;stroke:#000000;stroke-width:3;stroke-linecap:butt;stroke-linejoin:miter;stroke-miterlimit:4;stroke-dasharray:none;stroke-dashoffset:0;stroke-opacity:0.8"/>
    </g>
  </g>
</svg>